<svg width="1360" height="1034" viewBox="0 0 1360 1034" fill="none" xmlns="http://www.w3.org/2000/svg">
<rect width="1360" height="1034" fill="black"/>
<path d="M526.4 549H491.44V484.6H499.076V548.08H526.4V549ZM529.221 518.364C529.221 507.201 531.92 498.737 537.317 492.972C542.776 487.145 549.768 484.232 558.293 484.232C566.818 484.232 573.596 486.747 578.625 491.776C583.716 496.805 586.261 504.84 586.261 515.88C586.261 526.92 583.562 535.261 578.165 540.904C572.768 546.547 565.561 549.368 556.545 549.368C548.756 549.368 542.377 547.129 537.409 542.652C534.833 540.321 532.809 537.101 531.337 532.992C529.926 528.821 529.221 523.945 529.221 518.364ZM558.017 485.152C551.822 485.152 546.732 487.912 542.745 493.432C538.82 498.952 536.857 507.048 536.857 517.72C536.857 528.392 538.728 536.181 542.469 541.088C546.21 545.995 551.178 548.448 557.373 548.448C563.629 548.448 568.72 545.688 572.645 540.168C576.632 534.587 578.625 526.521 578.625 515.972C578.625 505.361 576.724 497.572 572.921 492.604C569.18 487.636 564.212 485.152 558.017 485.152ZM591.915 549H590.811L618.319 484.6L619.331 484.14L642.515 549H634.695L627.519 528.76H600.655L591.915 549ZM615.467 494.536L601.023 527.84H627.243L615.467 494.536ZM658.183 484.692C660.881 484.569 663.519 484.508 666.095 484.508C668.732 484.508 671.492 484.784 674.375 485.336C677.319 485.888 680.201 486.931 683.023 488.464C685.905 489.936 688.328 491.868 690.291 494.26C692.315 496.591 693.94 499.688 695.167 503.552C696.393 507.416 697.007 512.108 697.007 517.628C697.007 523.148 696.087 528.116 694.247 532.532C692.468 536.887 690.015 540.229 686.887 542.56C680.815 547.099 673.485 549.368 664.899 549.368C661.893 549.368 658.735 549.245 655.423 549H650.823V484.692H658.183ZM658.459 548.264C659.747 548.387 661.372 548.448 663.335 548.448C665.297 548.448 666.769 548.417 667.751 548.356C668.732 548.295 670.081 548.049 671.799 547.62C673.516 547.129 675.111 546.485 676.583 545.688C678.055 544.891 679.588 543.725 681.183 542.192C682.839 540.597 684.249 538.727 685.415 536.58C688.052 531.551 689.371 524.988 689.371 516.892C689.371 511.127 688.665 506.159 687.255 501.988C685.844 497.756 684.219 494.628 682.379 492.604C680.6 490.58 678.423 488.985 675.847 487.82C673.271 486.593 671.216 485.888 669.683 485.704C668.149 485.52 666.371 485.428 664.347 485.428C662.323 485.428 660.36 485.52 658.459 485.704V548.264ZM706.256 485.52V484.6H722.632V485.52H718.124V548.08H722.632V549H706.256V548.08H710.488V485.52H706.256ZM736.281 549H735.085V484.6H738.213L776.485 544.124V484.6H777.681V549H770.965L736.281 495.64V549ZM820.349 549.368C808.879 549.368 800.385 546.117 794.865 539.616C792.902 537.285 791.307 534.188 790.081 530.324C788.854 526.46 788.241 521.768 788.241 516.248C788.241 510.728 789.13 505.791 790.909 501.436C792.749 497.02 795.233 493.616 798.361 491.224C804.433 486.747 811.762 484.508 820.349 484.508C823.109 484.508 825.807 484.723 828.445 485.152C831.082 485.52 833.045 485.919 834.333 486.348L836.265 486.992L835.989 487.912C831.205 486.256 825.991 485.428 820.349 485.428C813.847 485.428 808.419 487.544 804.065 491.776C800.753 494.904 798.422 499.504 797.073 505.576C796.275 509.011 795.877 513.212 795.877 518.18C795.877 523.148 796.582 527.748 797.993 531.98C799.403 536.151 800.998 539.248 802.777 541.272C804.617 543.296 806.825 544.921 809.401 546.148C811.977 547.313 814.031 547.988 815.565 548.172C817.098 548.356 818.907 548.448 820.993 548.448C823.139 548.448 825.991 548.203 829.549 547.712V528.76H818.417V527.84H841.141V528.76H837.185V546.884C832.523 548.54 826.911 549.368 820.349 549.368ZM848.907 549.368C848.109 549.368 847.404 549.092 846.791 548.54C846.239 547.927 845.963 547.221 845.963 546.424C845.963 545.565 846.239 544.86 846.791 544.308C847.343 543.756 848.017 543.48 848.815 543.48C849.673 543.48 850.379 543.787 850.931 544.4C851.544 544.952 851.851 545.627 851.851 546.424C851.851 547.221 851.544 547.927 850.931 548.54C850.379 549.092 849.704 549.368 848.907 549.368ZM859.059 549.368C858.262 549.368 857.556 549.092 856.943 548.54C856.391 547.927 856.115 547.221 856.115 546.424C856.115 545.565 856.391 544.86 856.943 544.308C857.495 543.756 858.17 543.48 858.967 543.48C859.826 543.48 860.531 543.787 861.083 544.4C861.696 544.952 862.003 545.627 862.003 546.424C862.003 547.221 861.696 547.927 861.083 548.54C860.531 549.092 859.856 549.368 859.059 549.368ZM869.211 549.368C868.414 549.368 867.709 549.092 867.095 548.54C866.543 547.927 866.267 547.221 866.267 546.424C866.267 545.565 866.543 544.86 867.095 544.308C867.647 543.756 868.322 543.48 869.119 543.48C869.978 543.48 870.683 543.787 871.235 544.4C871.849 544.952 872.155 545.627 872.155 546.424C872.155 547.221 871.849 547.927 871.235 548.54C870.683 549.092 870.009 549.368 869.211 549.368Z" fill="white"/>
</svg>
