<svg width="1360" height="1034" viewBox="0 0 1360 1034" fill="none" xmlns="http://www.w3.org/2000/svg">
<rect width="1360" height="1034" fill="black"/>
<path d="M526.4 719H491.44V654.6H499.076V718.08H526.4V719ZM529.221 688.364C529.221 677.201 531.92 668.737 537.317 662.972C542.776 657.145 549.768 654.232 558.293 654.232C566.818 654.232 573.596 656.747 578.625 661.776C583.716 666.805 586.261 674.84 586.261 685.88C586.261 696.92 583.562 705.261 578.165 710.904C572.768 716.547 565.561 719.368 556.545 719.368C548.756 719.368 542.377 717.129 537.409 712.652C534.833 710.321 532.809 707.101 531.337 702.992C529.926 698.821 529.221 693.945 529.221 688.364ZM558.017 655.152C551.822 655.152 546.732 657.912 542.745 663.432C538.82 668.952 536.857 677.048 536.857 687.72C536.857 698.392 538.728 706.181 542.469 711.088C546.21 715.995 551.178 718.448 557.373 718.448C563.629 718.448 568.72 715.688 572.645 710.168C576.632 704.587 578.625 696.521 578.625 685.972C578.625 675.361 576.724 667.572 572.921 662.604C569.18 657.636 564.212 655.152 558.017 655.152ZM591.915 719H590.811L618.319 654.6L619.331 654.14L642.515 719H634.695L627.519 698.76H600.655L591.915 719ZM615.467 664.536L601.023 697.84H627.243L615.467 664.536ZM658.183 654.692C660.881 654.569 663.519 654.508 666.095 654.508C668.732 654.508 671.492 654.784 674.375 655.336C677.319 655.888 680.201 656.931 683.023 658.464C685.905 659.936 688.328 661.868 690.291 664.26C692.315 666.591 693.94 669.688 695.167 673.552C696.393 677.416 697.007 682.108 697.007 687.628C697.007 693.148 696.087 698.116 694.247 702.532C692.468 706.887 690.015 710.229 686.887 712.56C680.815 717.099 673.485 719.368 664.899 719.368C661.893 719.368 658.735 719.245 655.423 719H650.823V654.692H658.183ZM658.459 718.264C659.747 718.387 661.372 718.448 663.335 718.448C665.297 718.448 666.769 718.417 667.751 718.356C668.732 718.295 670.081 718.049 671.799 717.62C673.516 717.129 675.111 716.485 676.583 715.688C678.055 714.891 679.588 713.725 681.183 712.192C682.839 710.597 684.249 708.727 685.415 706.58C688.052 701.551 689.371 694.988 689.371 686.892C689.371 681.127 688.665 676.159 687.255 671.988C685.844 667.756 684.219 664.628 682.379 662.604C680.6 660.58 678.423 658.985 675.847 657.82C673.271 656.593 671.216 655.888 669.683 655.704C668.149 655.52 666.371 655.428 664.347 655.428C662.323 655.428 660.36 655.52 658.459 655.704V718.264ZM706.256 655.52V654.6H722.632V655.52H718.124V718.08H722.632V719H706.256V718.08H710.488V655.52H706.256ZM736.281 719H735.085V654.6H738.213L776.485 714.124V654.6H777.681V719H770.965L736.281 665.64V719ZM820.349 719.368C808.879 719.368 800.385 716.117 794.865 709.616C792.902 707.285 791.307 704.188 790.081 700.324C788.854 696.46 788.241 691.768 788.241 686.248C788.241 680.728 789.13 675.791 790.909 671.436C792.749 667.02 795.233 663.616 798.361 661.224C804.433 656.747 811.762 654.508 820.349 654.508C823.109 654.508 825.807 654.723 828.445 655.152C831.082 655.52 833.045 655.919 834.333 656.348L836.265 656.992L835.989 657.912C831.205 656.256 825.991 655.428 820.349 655.428C813.847 655.428 808.419 657.544 804.065 661.776C800.753 664.904 798.422 669.504 797.073 675.576C796.275 679.011 795.877 683.212 795.877 688.18C795.877 693.148 796.582 697.748 797.993 701.98C799.403 706.151 800.998 709.248 802.777 711.272C804.617 713.296 806.825 714.921 809.401 716.148C811.977 717.313 814.031 717.988 815.565 718.172C817.098 718.356 818.907 718.448 820.993 718.448C823.139 718.448 825.991 718.203 829.549 717.712V698.76H818.417V697.84H841.141V698.76H837.185V716.884C832.523 718.54 826.911 719.368 820.349 719.368ZM848.907 719.368C848.109 719.368 847.404 719.092 846.791 718.54C846.239 717.927 845.963 717.221 845.963 716.424C845.963 715.565 846.239 714.86 846.791 714.308C847.343 713.756 848.017 713.48 848.815 713.48C849.673 713.48 850.379 713.787 850.931 714.4C851.544 714.952 851.851 715.627 851.851 716.424C851.851 717.221 851.544 717.927 850.931 718.54C850.379 719.092 849.704 719.368 848.907 719.368ZM859.059 719.368C858.262 719.368 857.556 719.092 856.943 718.54C856.391 717.927 856.115 717.221 856.115 716.424C856.115 715.565 856.391 714.86 856.943 714.308C857.495 713.756 858.17 713.48 858.967 713.48C859.826 713.48 860.531 713.787 861.083 714.4C861.696 714.952 862.003 715.627 862.003 716.424C862.003 717.221 861.696 717.927 861.083 718.54C860.531 719.092 859.856 719.368 859.059 719.368ZM869.211 719.368C868.414 719.368 867.709 719.092 867.095 718.54C866.543 717.927 866.267 717.221 866.267 716.424C866.267 715.565 866.543 714.86 867.095 714.308C867.647 713.756 868.322 713.48 869.119 713.48C869.978 713.48 870.683 713.787 871.235 714.4C871.849 714.952 872.155 715.627 872.155 716.424C872.155 717.221 871.849 717.927 871.235 718.54C870.683 719.092 870.009 719.368 869.211 719.368Z" fill="white"/>
</svg>
