<svg width="134" height="134" viewBox="0 0 134 134" fill="none" xmlns="http://www.w3.org/2000/svg">
<path d="M120.558 61.7133L45.1414 15.5932C44.1885 15.0021 43.0939 14.6789 41.9728 14.6577C40.8517 14.6365 39.7456 14.9181 38.7711 15.4728C37.8037 16.0044 36.9978 16.7875 36.4386 17.7392C35.8793 18.691 35.5875 19.776 35.5939 20.8799V113.12C35.5875 114.224 35.8793 115.309 36.4386 116.261C36.9978 117.212 37.8037 117.996 38.7711 118.527C39.7456 119.082 40.8517 119.363 41.9728 119.342C43.0939 119.321 44.1885 118.998 45.1414 118.407L120.558 72.2867C121.466 71.7349 122.216 70.9586 122.737 70.0326C123.258 69.1067 123.531 68.0623 123.531 67C123.531 65.9377 123.258 64.8933 122.737 63.9673C122.216 63.0414 121.466 62.2651 120.558 61.7133ZM118.37 68.7116L42.9534 114.837C42.6341 115.033 42.2679 115.14 41.8932 115.147C41.5185 115.153 41.1489 115.059 40.823 114.874C40.5052 114.705 40.2396 114.452 40.0551 114.143C39.8705 113.834 39.7741 113.48 39.7761 113.12V20.8799C39.7741 20.5199 39.8705 20.1663 40.0551 19.8572C40.2396 19.5481 40.5052 19.2954 40.823 19.1264C41.1489 18.9413 41.5185 18.847 41.8932 18.8534C42.2679 18.8599 42.6341 18.9668 42.9534 19.163L118.37 65.2883C118.668 65.4643 118.914 65.7147 119.085 66.0149C119.256 66.315 119.346 66.6545 119.346 67C119.346 67.3455 119.256 67.685 119.085 67.9851C118.914 68.2852 118.668 68.5356 118.37 68.7116Z" fill="white"/>
</svg>
