<svg width="42" height="42" viewBox="0 0 42 42" fill="none" xmlns="http://www.w3.org/2000/svg">
<rect x="1" y="1" width="40" height="40" rx="20" stroke="white" stroke-width="2"/>
<path d="M20.989 27.9801C20.8449 27.9817 20.702 27.9559 20.5695 27.9044C20.437 27.8529 20.3179 27.7769 20.2198 27.6812L10.3297 18.7138C9.89011 18.3152 9.89011 17.6975 10.3297 17.2989C10.7692 16.9004 11.4505 16.9004 11.8901 17.2989L21.011 25.5688L30.1099 17.3188C30.5494 16.9203 31.2308 16.9203 31.6703 17.3188C32.1099 17.7174 32.1099 18.3351 31.6703 18.7337L21.7802 27.7011C21.5604 27.9004 21.2747 28 21.011 28L20.989 27.9801Z" fill="white"/>
</svg>
